<svg preserveAspectRatio="none" overflow="visible" style="display: block;" width="60" height="60" viewBox="0 0 60 60" fill="none" xmlns="http://www.w3.org/2000/svg">
<path id="&#236;&#161;&#176;&#236;&#187;&#164; &#236;&#149;&#132;&#236;&#157;&#180;&#236;&#189;&#152;" d="M12 60V47.25C10.05 46.4 8.3375 45.2625 6.8625 43.8375C5.3875 42.4125 4.1375 40.8 3.1125 39C2.0875 37.2 1.3125 35.275 0.7875 33.225C0.2625 31.175 0 29.1 0 27C0 19.1 2.8 12.625 8.4 7.575C14 2.525 21.2 0 30 0C38.8 0 46 2.525 51.6 7.575C57.2 12.625 60 19.1 60 27C60 29.1 59.7375 31.175 59.2125 33.225C58.6875 35.275 57.9125 37.2 56.8875 39C55.8625 40.8 54.6125 42.4125 53.1375 43.8375C51.6625 45.2625 49.95 46.4 48 47.25V60H12ZM18 54H21V48H27V54H33V48H39V54H42V43.35C43.9 42.9 45.5875 42.15 47.0625 41.1C48.5375 40.05 49.7875 38.8 50.8125 37.35C51.8375 35.9 52.625 34.3 53.175 32.55C53.725 30.8 54 28.95 54 27C54 20.75 51.7875 15.6875 47.3625 11.8125C42.9375 7.9375 37.15 6 30 6C22.85 6 17.0625 7.9375 12.6375 11.8125C8.2125 15.6875 6 20.75 6 27C6 28.95 6.275 30.8 6.825 32.55C7.375 34.3 8.1625 35.9 9.1875 37.35C10.2125 38.8 11.475 40.05 12.975 41.1C14.475 42.15 16.15 42.9 18 43.35V54ZM25.5 39H34.5L30 30L25.5 39ZM19.5 33C21.15 33 22.5625 32.4125 23.7375 31.2375C24.9125 30.0625 25.5 28.65 25.5 27C25.5 25.35 24.9125 23.9375 23.7375 22.7625C22.5625 21.5875 21.15 21 19.5 21C17.85 21 16.4375 21.5875 15.2625 22.7625C14.0875 23.9375 13.5 25.35 13.5 27C13.5 28.65 14.0875 30.0625 15.2625 31.2375C16.4375 32.4125 17.85 33 19.5 33ZM40.5 33C42.15 33 43.5625 32.4125 44.7375 31.2375C45.9125 30.0625 46.5 28.65 46.5 27C46.5 25.35 45.9125 23.9375 44.7375 22.7625C43.5625 21.5875 42.15 21 40.5 21C38.85 21 37.4375 21.5875 36.2625 22.7625C35.0875 23.9375 34.5 25.35 34.5 27C34.5 28.65 35.0875 30.0625 36.2625 31.2375C37.4375 32.4125 38.85 33 40.5 33Z" fill="#FF5A5F"/>
</svg>
