<svg width="15" height="15" viewBox="0 0 15 15" fill="none" xmlns="http://www.w3.org/2000/svg">
<path d="M13.6667 6.66667L13.25 5.75L12.3333 5.33333L13.25 4.91667L13.6667 4L14.0833 4.91667L15 5.33333L14.0833 5.75L13.6667 6.66667ZM11.6667 4L11.0333 2.63333L9.66667 2L11.0333 1.36667L11.6667 0L12.3 1.36667L13.6667 2L12.3 2.63333L11.6667 4ZM5 14.6667C4.63333 14.6667 4.31944 14.5361 4.05833 14.275C3.79722 14.0139 3.66667 13.7 3.66667 13.3333H6.33333C6.33333 13.7 6.20278 14.0139 5.94167 14.275C5.68056 14.5361 5.36667 14.6667 5 14.6667ZM2.33333 12.6667V11.3333H7.66667V12.6667H2.33333ZM2.5 10.6667C1.73333 10.2111 1.125 9.6 0.675 8.83333C0.225 8.06667 0 7.23333 0 6.33333C0 4.94444 0.486111 3.76389 1.45833 2.79167C2.43056 1.81944 3.61111 1.33333 5 1.33333C6.38889 1.33333 7.56944 1.81944 8.54167 2.79167C9.51389 3.76389 10 4.94444 10 6.33333C10 7.23333 9.775 8.06667 9.325 8.83333C8.875 9.6 8.26667 10.2111 7.5 10.6667H2.5ZM2.9 9.33333H7.1C7.6 8.97778 7.98611 8.53889 8.25833 8.01667C8.53056 7.49444 8.66667 6.93333 8.66667 6.33333C8.66667 5.31111 8.31111 4.44444 7.6 3.73333C6.88889 3.02222 6.02222 2.66667 5 2.66667C3.97778 2.66667 3.11111 3.02222 2.4 3.73333C1.68889 4.44444 1.33333 5.31111 1.33333 6.33333C1.33333 6.93333 1.46944 7.49444 1.74167 8.01667C2.01389 8.53889 2.4 8.97778 2.9 9.33333Z" fill="#6B7280"/>
</svg>
